<svg xmlns="http://www.w3.org/2000/svg" width="52" height="45" viewBox="0 0 52 45" fill="none">
  <path d="M46.4692 1.23242V1.0566L46.3031 1.11436L25.8457 8.22999L5.38823 1.11436L5.22217 1.0566V1.23242V3.46052V3.53209L5.28389 3.56832L25.7824 15.6001L25.8457 15.6372L25.909 15.6001L46.4075 3.56832L46.4692 3.53209V3.46052V1.23242Z" fill="black" stroke="white" stroke-width="0.25"/>
  <path d="M29.3709 44.1317L29.503 44.1757L29.5326 44.0396L33.9813 23.5752L49.9996 6.66701L50.1156 6.54463L49.9648 6.46924L48.1824 5.57801L48.1145 5.54402L48.053 5.58872L28.4456 19.8485L28.399 19.8825L28.3945 19.94L26.6121 43.1123L26.6046 43.2096L26.6972 43.2404L29.3709 44.1317Z" fill="black" stroke="white" stroke-width="0.25"/>
  <path d="M22.6291 44.1317L22.497 44.1757L22.4674 44.0396L18.0187 23.5752L2.00037 6.66701L1.88443 6.54463L2.03521 6.46924L3.81756 5.57801L3.88552 5.54402L3.94698 5.58872L23.5544 19.8485L23.601 19.8825L23.6055 19.94L25.3879 43.1123L25.3954 43.2096L25.3028 43.2404L22.6291 44.1317Z" fill="black" stroke="white" stroke-width="0.25"/>
</svg>